<?xml version="1.0" encoding="utf-8"?>
<!-- Generator: Adobe Illustrator 21.0.0, SVG Export Plug-In . SVG Version: 6.00 Build 0)  -->
<svg version="1.1" id="Layer_1" xmlns="http://www.w3.org/2000/svg" xmlns:xlink="http://www.w3.org/1999/xlink" x="0px" y="0px"
	 viewBox="0 0 24 24" style="enable-background:new 0 0 24 24;" xml:space="preserve">
<style type="text/css">
	.st0{fill:#585858;}
</style>
<path class="st0" d="M14,12c0,1.1-0.9,2-2,2c-1.1,0-2-0.9-2-2s0.9-2,2-2C13.1,10,14,10.9,14,12z M24,12c0,6.6-5.4,12-12,12
	S0,18.6,0,12S5.4,0,12,0S24,5.4,24,12z M9.2,19.5C7,18.7,5.3,17,4.5,14.8l-1,0.1c0.9,2.6,3,4.7,5.6,5.6L9.2,19.5z M9.5,17.4
	c-1.3-0.6-2.3-1.6-2.9-2.9l-1,0.1c0.7,1.7,2.1,3.1,3.8,3.8L9.5,17.4z M16,12c0-2.2-1.8-4-4-4s-4,1.8-4,4s1.8,4,4,4S16,14.2,16,12z
	 M18.5,9.3c-0.7-1.7-2.1-3.1-3.8-3.8l-0.1,1c1.3,0.6,2.3,1.6,2.9,2.9L18.5,9.3z M20.5,9.1c-0.9-2.6-3-4.7-5.6-5.6l-0.1,1
	c2.2,0.8,3.9,2.5,4.7,4.7L20.5,9.1z"/>
</svg>
