<svg id="Layer_1" xmlns="http://www.w3.org/2000/svg" viewBox="0 0 24 24"><style>.st0{fill:#6ed3cf}</style><path class="st0" d="M14 12c0 1.1-.9 2-2 2s-2-.9-2-2 .9-2 2-2 2 .9 2 2zm10 0c0 6.6-5.4 12-12 12S0 18.6 0 12 5.4 0 12 0s12 5.4 12 12zM9.2 19.5C7 18.7 5.3 17 4.5 14.8l-1 .1c.9 2.6 3 4.7 5.6 5.6l.1-1zm.3-2.1c-1.3-.6-2.3-1.6-2.9-2.9l-1 .1c.7 1.7 2.1 3.1 3.8 3.8l.1-1zM16 12c0-2.2-1.8-4-4-4s-4 1.8-4 4 1.8 4 4 4 4-1.8 4-4zm2.5-2.7c-.7-1.7-2.1-3.1-3.8-3.8l-.1 1c1.3.6 2.3 1.6 2.9 2.9l1-.1zm2-.2c-.9-2.6-3-4.7-5.6-5.6l-.1 1c2.2.8 3.9 2.5 4.7 4.7l1-.1z"/></svg>